# xmcd
#
# Track frame offsets: 
#        182
#        11520
#        24232
#        38717
#        56807
#        67580
#        85465
#        98922
#        112417
#        123657
#        136477
#        154095
#        167780
#        178830
#        193000
#        211750
#        226815
#        245442
#        261095
#        270947
#        286087
#        299092
#        309412
#        323342
#        334417
#
# Disc length: 4611 seconds
#
# Revision: 0
# Processed by: cddbd v1.4PL0 Copyright (c) Steve Scherf et al.
# Submitted via: ExactAudioCopy v0.95a3
#
DISCID=66120119
DTITLE=Sean O'Farrell - Introducing Sean O'Farrell
DYEAR=1994
DGENRE=Easy Listening
TTITLE0=When The Girl In Your Arms
TTITLE1=This Song Is Just For You
TTITLE2=Love Without End Amen
TTITLE3=Galway Shawl
TTITLE4=Walk On By
TTITLE5=Nobody's Child
TTITLE6=Wanted
TTITLE7=You Would Do The Same For Me
TTITLE8=Hey Pretty Lady
TTITLE9=Crystal Chandeliers
TTITLE10=Missing Him
TTITLE11=The Way Love Ought To Be
TTITLE12=Eigteen Yellow Roses
TTITLE13=Lord She Sure Is Good At Loving Me
TTITLE14=I'd Love You To Want Me
TTITLE15=Those Brown Eyes
TTITLE16=A Soldiers Tale
TTITLE17=Every Road Leads Back To You
TTITLE18=Judy
TTITLE19=The Champion Of 403 Mulberry Drive
TTITLE20=Baby Don't You Know
TTITLE21=I Want To Be With You Always
TTITLE22=Do You Know How Much I Love You
TTITLE23=Longing To Hold You Again
TTITLE24=Still
EXTD=
EXTT0=
EXTT1=
EXTT2=
EXTT3=
EXTT4=
EXTT5=
EXTT6=
EXTT7=
EXTT8=
EXTT9=
EXTT10=
EXTT11=
EXTT12=
EXTT13=
EXTT14=
EXTT15=
EXTT16=
EXTT17=
EXTT18=
EXTT19=
EXTT20=
EXTT21=
EXTT22=
EXTT23=
EXTT24=
PLAYORDER=
